<?xml version="1.0" standalone="no"?>
<!DOCTYPE svg PUBLIC "-//W3C//DTD SVG 20010904//EN"
 "http://www.w3.org/TR/2001/REC-SVG-20010904/DTD/svg10.dtd">
<svg version="1.0" xmlns="http://www.w3.org/2000/svg"
 width="153.000000pt" height="153.000000pt" viewBox="0 0 153.000000 153.000000"
 preserveAspectRatio="xMidYMid meet">
<metadata>
Created by potrace 1.11, written by Peter Selinger 2001-2013
</metadata>
<g transform="translate(0.000000,153.000000) scale(0.100000,-0.100000)"
fill="#000000" stroke="none">
<path d="M749 1446 c-2 -2 -22 -6 -44 -9 -73 -10 -255 -80 -255 -98 0 -5 -5
-9 -11 -9 -16 0 -109 -76 -143 -117 -16 -19 -57 -52 -91 -74 -80 -50 -139
-115 -173 -187 -24 -50 -27 -69 -26 -152 1 -104 20 -166 73 -244 86 -125 231
-209 361 -209 56 0 161 12 174 20 6 4 6 -1 2 -13 -5 -10 -16 -50 -26 -87 l-18
-68 86 3 86 3 36 129 36 130 60 2 c108 3 210 67 249 155 16 35 22 39 54 39 68
1 116 12 178 42 148 70 212 236 143 372 -45 88 -160 171 -272 196 -42 10 -59
19 -74 42 -26 41 -99 92 -159 113 -44 15 -235 32 -246 21z"/>
</g>
</svg>
